<svg xmlns="http://www.w3.org/2000/svg" viewBox="0 0 920 430" font-family="'JetBrains Mono','Fira Code',Consolas,monospace">
  <style>
    .lbl{fill:#00e5ff;font-size:13px}
    .val{fill:#e6f7ff;font-size:13px}
    .dim{fill:#6b7a8f;font-size:13px}
    .hd{fill:#00e5ff;font-size:13px;font-weight:bold}
    .cur{animation:blink 1s steps(1) infinite}
    @keyframes blink{50%{opacity:0}}
    .pulse{animation:pulse 2.4s infinite}
    @keyframes pulse{0%,100%{opacity:.25}50%{opacity:1}}
  </style>
  <rect width="920" height="430" rx="12" fill="#04060f" stroke="#00e5ff" stroke-opacity=".35"/>
  <!-- title bar -->
  <circle cx="24" cy="22" r="6" fill="#ff5f56"/><circle cx="44" cy="22" r="6" fill="#ffbd2e"/><circle cx="64" cy="22" r="6" fill="#27c93f"/>
  <text x="460" y="27" text-anchor="middle" class="dim">dikshant@embedded: ~/whoami</text>
  <line x1="0" y1="40" x2="920" y2="40" stroke="#00e5ff" stroke-opacity=".15"/>

  <!-- ===== left: static isometric IC ===== -->
  <g transform="translate(50,84)">
    <text x="0" y="-6" fill="#00e5ff" font-size="11" letter-spacing="2">// PACKAGE.VIEW — DA-3001 QFP</text>
    <rect x="-12" y="6" width="316" height="252" rx="8" fill="#060b18" stroke="#00e5ff" stroke-opacity=".25"/>

    <!-- faint board grid (iso) -->
    <g stroke="#00e5ff" stroke-opacity=".06" stroke-width="1">
      <path d="M20 210 L150 275 M60 190 L210 265 M100 170 L260 250 M140 150 L292 226" fill="none"/>
      <path d="M280 210 L150 275 M240 190 L90 265 M200 170 L40 250 M160 150 L8 226" fill="none"/>
    </g>

    <!-- cyan traces + vias -->
    <g stroke="#00e5ff" stroke-width="1.5" fill="none" stroke-opacity=".85">
      <path d="M231 85 l22 -11 l18 0"/>
      <path d="M253 96 l30 -15"/>
      <path d="M209 74 l14 -7 l0 -14"/>
      <path d="M109 74 l-14 -7 l0 -14"/>
      <path d="M87 85 l-22 -11 l-18 0"/>
      <path d="M65 96 l-30 -15"/>
      <path d="M253 160 l26 13 l0 16"/>
      <path d="M231 171 l20 10 l16 0"/>
      <path d="M209 182 l14 7 l0 22"/>
      <path d="M65 160 l-26 13 l0 16"/>
      <path d="M87 171 l-20 10 l-16 0"/>
      <path d="M109 182 l-14 7 l0 22"/>
    </g>
    <g fill="#060b18" stroke="#00e5ff" stroke-width="1.4">
      <circle cx="271" cy="74" r="3.4"/><circle cx="283" cy="81" r="3.4"/>
      <circle cx="223" cy="53" r="3.4"/><circle cx="95" cy="53" r="3.4"/>
      <circle cx="47" cy="74" r="3.4"/><circle cx="35" cy="81" r="3.4"/>
      <circle cx="279" cy="189" r="3.4"/><circle cx="267" cy="181" r="3.4"/>
      <circle cx="223" cy="211" r="3.4"/><circle cx="39" cy="189" r="3.4"/>
      <circle cx="51" cy="181" r="3.4"/><circle cx="95" cy="211" r="3.4"/>
    </g>

    <!-- leads (silver) -->
    <g stroke="#9bb3c8" stroke-width="3" stroke-linecap="round" fill="none">
      <path d="M194 72 l11 -5.5 M216 83 l11 -5.5 M238 94 l11 -5.5"/>
      <path d="M146 72 l-11 -5.5 M124 83 l-11 -5.5 M102 94 l-11 -5.5"/>
      <path d="M238 152 l11 5.5 M216 163 l11 5.5 M194 174 l11 5.5"/>
      <path d="M102 152 l-11 5.5 M124 163 l-11 5.5 M146 174 l-11 5.5"/>
    </g>

    <!-- package body: side faces then top -->
    <polygon points="170,186 290,126 290,150 170,210" fill="#050d1a" stroke="#00e5ff" stroke-opacity=".35"/>
    <polygon points="170,186 50,126 50,150 170,210" fill="#03080f" stroke="#00e5ff" stroke-opacity=".35"/>
    <polygon points="170,66 290,126 170,186 50,126" fill="#0a1424" stroke="#00e5ff" stroke-opacity=".7" stroke-width="1.5"/>
    <polygon points="170,76 270,126 170,176 70,126" fill="#0c1830" stroke="#00e5ff" stroke-opacity=".25"/>
    <circle cx="92" cy="132" r="4" fill="#04060f" stroke="#00e5ff" stroke-opacity=".5"/>

    <!-- laser-etched markings (isometric) -->
    <g transform="matrix(0.894,0.447,-0.894,0.447,170,120)" font-family="'JetBrains Mono',Consolas,monospace">
      <text x="0" y="-12" text-anchor="middle" fill="#e6f7ff" font-size="15" font-weight="bold" letter-spacing="1">DIKSHANT AGRAWAL</text>
      <text x="0" y="6" text-anchor="middle" fill="#00e5ff" font-size="9" letter-spacing="3">EMBEDDED SYSTEMS</text>
      <text x="0" y="21" text-anchor="middle" fill="#6b7a8f" font-size="8" letter-spacing="1">DA-3001 · ARM CORTEX-M · DE</text>
    </g>

    <!-- footer strip -->
    <text x="4" y="242" font-size="10" fill="#6b7a8f" letter-spacing="1">64-PIN · C/C++ CORE · RTOS SCHEDULED · KICAD ROUTED</text>
  </g>

  <!-- ===== right: neofetch dump ===== -->
  <g transform="translate(400,78)">
    <text y="0"   class="hd">dikshant@embedded</text>
    <text y="14"  class="dim">─────────────────────────────────────────────</text>
    <text y="34"  class="lbl">Role:      <tspan class="val">Embedded Firmware Engineer (M.Sc. student)</tspan></text>
    <text y="54"  class="lbl">Host:      <tspan class="val">Hochschule Darmstadt · Embedded Systems</tspan></text>
    <text y="74"  class="lbl">Uptime:    <tspan class="val">3+ years industry firmware</tspan></text>
    <text y="94"  class="lbl">Kernel:    <tspan class="val">ErikaOS (OSEK) · FreeRTOS · bare-metal</tspan></text>
    <text y="114" class="lbl">CPU:       <tspan class="val">Cortex-M · PSoC5LP · STM32N6 · nRF52840 · ESP32</tspan></text>
    <text y="134" class="lbl">GPU:       <tspan class="val">Neural-ART NPU — runs Doom 🕹</tspan></text>
    <text y="154" class="lbl">Shell:     <tspan class="val">C · C++ · Python · SystemVerilog</tspan></text>
    <text y="174" class="lbl">Packages:  <tspan class="val">UART I2C SPI CAN BLE Zigbee LoRa MQTT</tspan></text>
    <text y="194" class="lbl">Hardware:  <tspan class="val">KiCad · 4-layer PCB · JTAG/SWD · scope</tspan></text>
    <text y="214" class="lbl">Languages: <tspan class="val">English C1 · Deutsch B1 · Hindi native</tspan></text>
    <text y="234" class="lbl">Seeking:   <tspan class="val">6-month embedded internship · Germany</tspan></text>
    <text y="254" class="dim">─────────────────────────────────────────────</text>
    <text y="274" class="lbl">Portfolio: <tspan class="val">dikshant-agrawal.github.io</tspan></text>
    <text y="294" class="lbl">Contact:   <tspan class="val">agrawaldikshant3001@gmail.com</tspan></text>
    <text y="322" class="hd">$ <tspan class="val">./explore --repos</tspan><tspan fill="#00e5ff"> █</tspan></text>
  </g>
</svg>
