<svg xmlns="http://www.w3.org/2000/svg" viewBox="0 0 920 430" font-family="'JetBrains Mono','Fira Code',Consolas,monospace">
  <style>
    .lbl{fill:#00e5ff;font-size:13px}
    .val{fill:#e6f7ff;font-size:13px}
    .dim{fill:#6b7a8f;font-size:13px}
    .hd{fill:#00e5ff;font-size:13px;font-weight:bold}
    .cur{animation:blink 1s steps(1) infinite}
    @keyframes blink{50%{opacity:0}}
    .pulse{animation:pulse 2.4s infinite}
    @keyframes pulse{0%,100%{opacity:.25}50%{opacity:1}}
  </style>
  <rect width="920" height="430" rx="12" fill="#04060f" stroke="#00e5ff" stroke-opacity=".35"/>
  <!-- title bar -->
  <circle cx="24" cy="22" r="6" fill="#ff5f56"/><circle cx="44" cy="22" r="6" fill="#ffbd2e"/><circle cx="64" cy="22" r="6" fill="#27c93f"/>
  <text x="460" y="27" text-anchor="middle" class="dim">dikshant@embedded: ~/whoami</text>
  <line x1="0" y1="40" x2="920" y2="40" stroke="#00e5ff" stroke-opacity=".15"/>

  <!-- ===== left: static isometric IC ===== -->
  <g transform="translate(50,84)">
    <text x="0" y="-6" fill="#00e5ff" font-size="11" letter-spacing="2">// PACKAGE.VIEW — DA-3001 QFP</text>
    <rect x="-12" y="6" width="316" height="252" rx="8" fill="#060b18" stroke="#00e5ff" stroke-opacity=".25"/>

    <g stroke="#00e5ff" stroke-opacity=".06" stroke-width="1">
      <path d="M20 210 L150 275 M60 190 L210 265 M100 170 L260 250 M140 150 L292 226" fill="none"/>
      <path d="M280 210 L150 275 M240 190 L90 265 M200 170 L40 250 M160 150 L8 226" fill="none"/>
    </g>

    <!-- leads: rooted on the package edges -->
    <g stroke="#9bb3c8" stroke-width="3" stroke-linecap="round" fill="none">
      <path d="M200 81 l11 -5.5 M224 93 l11 -5.5 M248 105 l11 -5.5"/>
      <path d="M140 81 l-11 -5.5 M116 93 l-11 -5.5 M92 105 l-11 -5.5"/>
      <path d="M248 147 l11 5.5 M224 159 l11 5.5 M200 171 l11 5.5"/>
      <path d="M92 147 l-11 5.5 M116 159 l-11 5.5 M140 171 l-11 5.5"/>
    </g>
    <!-- traces: start exactly at each lead tip -->
    <g stroke="#00e5ff" stroke-width="1.5" fill="none" stroke-opacity=".85">
      <path d="M211 76 l16 -8 l16 0"/><path d="M235 88 l16 -8 l14 0"/><path d="M259 100 l16 -8 l12 0"/>
      <path d="M129 76 l-16 -8 l-16 0"/><path d="M105 88 l-16 -8 l-14 0"/><path d="M81 100 l-16 -8 l-12 0"/>
      <path d="M259 152 l16 8 l0 14"/><path d="M235 164 l16 8 l12 0"/><path d="M211 176 l16 8 l0 16"/>
      <path d="M81 152 l-16 8 l0 14"/><path d="M105 164 l-16 8 l-12 0"/><path d="M129 176 l-16 8 l0 16"/>
    </g>
    <g fill="#060b18" stroke="#00e5ff" stroke-width="1.4">
      <circle cx="243" cy="68" r="3.4"/><circle cx="265" cy="80" r="3.4"/><circle cx="287" cy="92" r="3.4"/>
      <circle cx="97" cy="68" r="3.4"/><circle cx="75" cy="80" r="3.4"/><circle cx="53" cy="92" r="3.4"/>
      <circle cx="275" cy="174" r="3.4"/><circle cx="263" cy="172" r="3.4"/><circle cx="227" cy="200" r="3.4"/>
      <circle cx="65" cy="174" r="3.4"/><circle cx="77" cy="172" r="3.4"/><circle cx="113" cy="200" r="3.4"/>
    </g>

    <!-- package body -->
    <polygon points="170,186 290,126 290,150 170,210" fill="#050d1a" stroke="#00e5ff" stroke-opacity=".35"/>
    <polygon points="170,186 50,126 50,150 170,210" fill="#03080f" stroke="#00e5ff" stroke-opacity=".35"/>
    <polygon points="170,66 290,126 170,186 50,126" fill="#0a1424" stroke="#00e5ff" stroke-opacity=".7" stroke-width="1.5"/>
    <polygon points="170,76 270,126 170,176 70,126" fill="#0c1830" stroke="#00e5ff" stroke-opacity=".25"/>

    <!-- etched edge-AI core -->
    <g transform="matrix(0.894,0.447,-0.894,0.447,170,120)">
      <g stroke="#00e5ff" stroke-width="1" stroke-opacity=".55" fill="none">
        <path d="M-42 -18 L0 -26 M-42 -18 L0 0 M-42 -18 L0 26 M-42 18 L0 -26 M-42 18 L0 0 M-42 18 L0 26"/>
        <path d="M0 -26 L42 -12 M0 -26 L42 12 M0 0 L42 -12 M0 0 L42 12 M0 26 L42 -12 M0 26 L42 12"/>
      </g>
      <g fill="#0c1830" stroke="#00e5ff" stroke-width="1.4">
        <circle cx="-42" cy="-18" r="6"/><circle cx="-42" cy="18" r="6"/>
        <circle cx="0" cy="-26" r="6"/><circle cx="0" cy="0" r="6"/><circle cx="0" cy="26" r="6"/>
        <circle cx="42" cy="-12" r="6"/><circle cx="42" cy="12" r="6"/>
      </g>
      <text x="0" y="44" text-anchor="middle" fill="#6b7a8f" font-size="8" letter-spacing="3" font-family="monospace">EDGE-AI CORE</text>
    </g>

    <text x="146" y="244" text-anchor="middle" font-size="10" fill="#6b7a8f" letter-spacing="2">C/C++ CORE · RTOS SCHEDULED</text>
  </g>

  <!-- ===== right: neofetch dump ===== -->
  <g transform="translate(400,78)">
    <text y="0"   class="hd">dikshant@embedded</text>
    <text y="14"  class="dim">─────────────────────────────────────────────</text>
    <text y="34"  class="lbl">Role:      <tspan class="val">Embedded Firmware Engineer (M.Sc. student)</tspan></text>
    <text y="54"  class="lbl">Host:      <tspan class="val">Hochschule Darmstadt · Embedded Systems</tspan></text>
    <text y="74"  class="lbl">Uptime:    <tspan class="val">3+ years industry firmware</tspan></text>
    <text y="94"  class="lbl">Kernel:    <tspan class="val">ErikaOS (OSEK) · FreeRTOS · bare-metal</tspan></text>
    <text y="114" class="lbl">CPU:       <tspan class="val">Cortex-M · PSoC5LP · STM32N6 · nRF52840 · ESP32</tspan></text>
    <text y="134" class="lbl">GPU:       <tspan class="val">Neural-ART NPU — runs Doom 🕹</tspan></text>
    <text y="154" class="lbl">Shell:     <tspan class="val">C · C++ · Python · SystemVerilog</tspan></text>
    <text y="174" class="lbl">Packages:  <tspan class="val">UART I2C SPI CAN BLE Zigbee LoRa MQTT</tspan></text>
    <text y="194" class="lbl">Hardware:  <tspan class="val">KiCad · 4-layer PCB · JTAG/SWD · scope</tspan></text>
    <text y="214" class="lbl">Languages: <tspan class="val">English C1 · Deutsch B1 · Hindi native</tspan></text>
    <text y="234" class="lbl">Seeking:   <tspan class="val">6-month embedded internship · Germany</tspan></text>
    <text y="254" class="dim">─────────────────────────────────────────────</text>
    <text y="274" class="lbl">Portfolio: <tspan class="val">dikshant-agrawal.github.io</tspan></text>
    <text y="294" class="lbl">Contact:   <tspan class="val">agrawaldikshant3001@gmail.com</tspan></text>
    <text y="322" class="hd">$ <tspan class="val">./explore --repos</tspan><tspan fill="#00e5ff"> █</tspan></text>
  </g>
</svg>
